<svg width="1365" height="509" viewBox="0 0 1365 509" fill="none" xmlns="http://www.w3.org/2000/svg">
<g opacity="0.44">
<path d="M17 17H1365M17 36.8537H1365M17 56.7074H1365M17 76.5611H1365M17 96.4148H1365M17 116.268H1365M17 136.122H1365M17 155.976H1365M17 175.83H1365" stroke="url(#paint0_linear_1_670)"/>
<path d="M17 175.83H1365M17 195.683H1365M17 215.537H1365M17 235.391H1365M17 255.244H1365M17 275.098H1365M17 294.952H1365M17 314.805H1365M17 334.659H1365" stroke="url(#paint1_linear_1_670)"/>
<path d="M17 333.17H1365M17 353.024H1365M17 372.878H1365M17 392.731H1365M17 412.585H1365M17 432.439H1365M17 452.293H1365M17 472.146H1365M17 492H1365" stroke="url(#paint2_linear_1_670)"/>
</g>
<g filter="url(#filter0_d_1_670)">
<rect x="23" y="17" width="475" height="5.99998" rx="2.99999" transform="rotate(90 23 17)" fill="#7F5CFF"/>
</g>
<defs>
<filter id="filter0_d_1_670" x="0" y="0" width="40" height="509" filterUnits="userSpaceOnUse" color-interpolation-filters="sRGB">
<feFlood flood-opacity="0" result="BackgroundImageFix"/>
<feColorMatrix in="SourceAlpha" type="matrix" values="0 0 0 0 0 0 0 0 0 0 0 0 0 0 0 0 0 0 127 0" result="hardAlpha"/>
<feOffset/>
<feGaussianBlur stdDeviation="8.5"/>
<feComposite in2="hardAlpha" operator="out"/>
<feColorMatrix type="matrix" values="0 0 0 0 0.74902 0 0 0 0 0.227451 0 0 0 0 1 0 0 0 0.4 0"/>
<feBlend mode="normal" in2="BackgroundImageFix" result="effect1_dropShadow_1_670"/>
<feBlend mode="normal" in="SourceGraphic" in2="effect1_dropShadow_1_670" result="shape"/>
</filter>
<linearGradient id="paint0_linear_1_670" x1="17.0001" y1="96.4128" x2="1361.36" y2="169.255" gradientUnits="userSpaceOnUse">
<stop stop-color="#A034D9" stop-opacity="0.34"/>
<stop offset="0.514801" stop-color="white" stop-opacity="0"/>
<stop offset="1" stop-color="white" stop-opacity="0"/>
</linearGradient>
<linearGradient id="paint1_linear_1_670" x1="17.0001" y1="255.242" x2="1361.36" y2="328.084" gradientUnits="userSpaceOnUse">
<stop stop-color="#A034D9" stop-opacity="0.34"/>
<stop offset="0.514801" stop-color="white" stop-opacity="0"/>
<stop offset="1" stop-color="white" stop-opacity="0"/>
</linearGradient>
<linearGradient id="paint2_linear_1_670" x1="17.0001" y1="412.583" x2="1361.36" y2="485.425" gradientUnits="userSpaceOnUse">
<stop stop-color="#A034D9" stop-opacity="0.34"/>
<stop offset="0.514801" stop-color="white" stop-opacity="0"/>
<stop offset="1" stop-color="white" stop-opacity="0"/>
</linearGradient>
</defs>
</svg>
