<svg width="445" height="67" viewBox="0 0 445 67" fill="none" xmlns="http://www.w3.org/2000/svg">
<path opacity="0.4" d="M0.605469 15.5654L407 15" stroke="white"/>
<path d="M23.9542 15.5654L57.5184 15.5654" stroke="#7F5CFF" stroke-width="4"/>
<path d="M6.84406 55.6191V47.1411H3.38806V45.0171H3.67606C4.73206 45.0171 5.54206 44.8551 6.10606 44.5311C6.67006 44.1951 7.03606 43.6431 7.20406 42.8751H9.92206V55.6191H6.84406Z" fill="white"/>
<path d="M393.972 55H404.952V52.282H398.004C398.184 51.598 399.696 51.022 402.162 49.708C404.232 48.61 405.222 47.53 405.222 45.856C405.222 43.426 403.26 41.914 399.678 41.914C396.114 41.914 394.062 43.714 394.008 46.756H397.266C397.302 45.28 398.13 44.542 399.696 44.542C401.1 44.542 401.856 45.028 401.856 45.946C401.856 46.864 401.046 47.206 399.822 47.836C397.518 49.024 396.078 49.762 395.574 50.32C394.458 51.49 393.972 52.822 393.972 54.622V55Z" fill="white"/>
<circle cx="15" cy="15" r="14" stroke="#7F5CFF" stroke-width="2"/>
<circle cx="15" cy="15.207" r="8" stroke="#7F5CFF" stroke-width="4"/>
<path d="M35.056 47.1874H31.492C31.06 45.5674 29.758 44.7574 27.586 44.7574C26.278 44.7574 25.246 45.1294 24.49 45.8734C23.734 46.6174 23.356 47.6434 23.356 48.9514C23.356 50.2594 23.734 51.2854 24.49 52.0294C25.246 52.7734 26.278 53.1454 27.586 53.1454C28.726 53.1454 29.638 52.9054 30.322 52.4254C31.018 51.9454 31.42 51.2734 31.528 50.4094H35.11C34.942 52.0414 34.18 53.3554 32.824 54.3514C31.468 55.3354 29.722 55.8274 27.586 55.8274C25.198 55.8274 23.296 55.2034 21.88 53.9554C20.464 52.6954 19.756 51.0274 19.756 48.9514C19.756 46.8754 20.464 45.2134 21.88 43.9654C23.296 42.7054 25.198 42.0754 27.586 42.0754C29.698 42.0754 31.426 42.5554 32.77 43.5154C34.126 44.4634 34.888 45.6874 35.056 47.1874ZM40.5914 42.4174V47.2774H46.8734V42.4174H50.1494V55.4854H46.8734V49.9594H40.5914V55.4854H37.3154V42.4174H40.5914ZM51.2474 55.4854L57.4394 42.4174H60.5714L66.5294 55.4854H62.8934L61.7054 52.7134H55.9454L54.7754 55.4854H51.2474ZM57.0614 50.0674H60.5174L58.7714 46.0354L57.0614 50.0674ZM67.6201 55.4854V42.4174H75.3601C76.8841 42.4174 78.0661 42.8134 78.9061 43.6054C79.7461 44.3854 80.1661 45.4714 80.1661 46.8634C80.1661 48.2674 79.7401 49.3714 78.8881 50.1754C78.0481 50.9794 76.8721 51.3814 75.3601 51.3814H70.8961V55.4854H67.6201ZM70.8961 45.0994V48.6994H73.9021C74.9701 48.6994 75.7321 48.5794 76.1881 48.3394C76.6561 48.0874 76.8901 47.6134 76.8901 46.9174C76.8901 46.1974 76.6801 45.7174 76.2601 45.4774C75.8521 45.2254 75.1381 45.0994 74.1181 45.0994H70.8961ZM80.8197 42.4174H93.0597V45.0994H88.5777V55.4854H85.3017V45.0994H80.8197V42.4174ZM94.4092 42.4174H106.019V45.0994H97.6852V47.2774H105.101V49.9594H97.6852V52.8034H106.019V55.4854H94.4092V42.4174ZM108.454 55.4854V42.4174H116.482C118.21 42.4174 119.488 42.6994 120.316 43.2634C121.144 43.8154 121.558 44.7034 121.558 45.9274C121.558 46.7074 121.366 47.3914 120.982 47.9794C120.61 48.5554 120.082 48.9754 119.398 49.2394C120.058 49.5154 120.484 49.8454 120.676 50.2294C120.88 50.6134 121 51.2134 121.036 52.0294C121.096 53.3974 121.186 54.2734 121.306 54.6574C121.414 54.9934 121.558 55.2694 121.738 55.4854H118.066C117.886 55.1974 117.796 54.8614 117.796 54.4774V53.5774C117.796 52.4374 117.652 51.6694 117.364 51.2734C117.076 50.8774 116.458 50.6794 115.51 50.6794H111.73V55.4854H108.454ZM111.73 45.0994V47.9974H115.438C116.362 47.9974 117.034 47.8894 117.454 47.6734C117.886 47.4454 118.102 47.0374 118.102 46.4494C118.102 45.8734 117.898 45.5074 117.49 45.3514C117.082 45.1834 116.35 45.0994 115.294 45.0994H111.73Z" fill="white"/>
</svg>
